<svg width="200" height="200" xmlns="http://www.w3.org/2000/svg" viewBox="0 0 200 200">
  <circle cx="100" cy="100" r="90" fill="none" stroke="#e5e7eb" stroke-width="1"/>
  <path d="M 100.00 100.00 L 100.30 100.00 L 100.61 100.00 L 100.91 100.00 L 101.22 100.00 L 101.52 100.00 L 101.83 100.00 L 102.13 100.00 L 102.44 100.00 L 102.74 100.00 L 103.05 100.00 L 103.35 100.00 L 103.65 100.00 L 103.96 100.00 L 104.26 100.00 L 104.57 100.00 L 104.87 100.00 L 105.18 100.00 L 105.48 100.00 L 105.79 100.00 L 106.09 100.00 L 106.40 100.00 L 106.70 100.00 L 107.01 100.00 L 107.31 100.00 L 107.61 100.00 L 107.92 100.00 L 108.22 100.00 L 108.53 100.00 L 108.83 100.00 L 109.14 100.00 L 109.65 98.99 L 109.99 97.88 L 110.10 96.72 L 109.94 95.58 L 109.50 94.52 L 108.80 93.61 L 107.89 92.90 L 106.83 92.41 L 105.70 92.15 L 104.57 92.09 L 103.49 92.17 L 102.49 92.33 L 101.59 92.51 L 100.77 92.64 L 100.00 92.69 L 99.23 92.64 L 98.41 92.51 L 97.51 92.33 L 96.51 92.17 L 95.43 92.09 L 94.30 92.15 L 93.17 92.41 L 92.11 92.90 L 91.20 93.61 L 90.50 94.52 L 90.06 95.58 L 89.90 96.72 L 90.01 97.88 L 90.35 98.99 L 90.86 100.00 L 91.47 100.90 L 92.11 101.68 L 92.72 102.37 L 93.24 103.01 L 93.67 103.65 L 94.01 104.35 L 94.31 105.12 L 94.60 105.99 L 94.96 106.94 L 95.43 107.91 L 96.05 108.86 L 96.84 109.71 L 97.79 110.38 L 98.86 110.82 L 100.00 110.96 L 101.14 110.82 L 102.21 110.38 L 103.16 109.71 L 103.95 108.86 L 104.57 107.91 L 105.04 106.94 L 105.40 105.99 L 105.69 105.12 L 105.99 104.35 L 106.33 103.65 L 106.76 103.01 L 107.28 102.37 L 107.89 101.68 L 108.53 100.90 L 109.14 100.00 L 109.90 98.25 L 110.26 97.06 L 110.41 95.79 L 110.31 94.52 L 109.92 93.31 L 109.24 92.25 L 108.31 91.39 L 107.19 90.80 L 105.95 90.47 L 104.68 90.41 L 103.44 90.56 L 102.28 90.85 L 101.23 91.22 L 100.29 91.58 L 99.43 91.88 L 98.60 92.08 L 97.76 92.18 L 96.84 92.19 L 95.84 92.17 L 94.73 92.18 L 93.54 92.30 L 92.32 92.59 L 91.15 93.08 L 90.10 93.81 L 89.25 94.76 L 88.67 95.87 L 88.39 97.11 L 88.44 98.37 L 88.77 99.61 L 89.35 100.74 L 90.10 101.75 L 90.94 102.60 L 91.78 103.32 L 92.56 103.96 L 93.25 104.55 L 93.84 105.17 L 94.35 105.85 L 94.81 106.64 L 95.30 107.52 L 95.87 108.48 L 96.56 109.44 L 97.42 110.36 L 98.44 111.12 L 99.59 111.67 L 100.83 111.93 L 102.09 111.88 L 103.30 111.50 L 104.37 110.83 L 105.27 109.92 L 105.97 108.85 L 106.46 107.70 L 106.78 106.55 L 106.99 105.46 L 107.14 104.46 L 107.32 103.57 L 107.56 102.75 L 107.90 101.97 L 108.34 101.17 L 108.86 100.31 L 109.41 99.34 L 109.90 98.25 L 110.39 96.22 L 110.55 94.85 L 110.48 93.45 L 110.12 92.09 L 109.47 90.86 L 108.53 89.84 L 107.36 89.09 L 106.03 88.66 L 104.63 88.54 L 103.24 88.72 L 101.92 89.11 L 100.72 89.65 L 99.66 90.25 L 98.71 90.82 L 97.83 91.31 L 96.97 91.69 L 96.08 91.95 L 95.09 92.14 L 93.99 92.31 L 92.79 92.54 L 91.53 92.89 L 90.27 93.44 L 89.09 94.20 L 88.09 95.19 L 87.35 96.37 L 86.93 97.70 L 86.87 99.08 L 87.16 100.45 L 87.76 101.72 L 88.61 102.84 L 89.61 103.78 L 90.68 104.55 L 91.73 105.17 L 92.70 105.71 L 93.56 106.22 L 94.31 106.78 L 94.99 107.42 L 95.65 108.18 L 96.35 109.05 L 97.14 109.97 L 98.08 110.89 L 99.18 111.71 L 100.43 112.35 L 101.79 112.72 L 103.18 112.77 L 104.54 112.47 L 105.77 111.83 L 106.81 110.89 L 107.61 109.74 L 108.15 108.44 L 108.47 107.11 L 108.60 105.80 L 108.61 104.58 L 108.59 103.47 L 108.61 102.47 L 108.71 101.54 L 108.93 100.62 L 109.26 99.68 L 109.66 98.64 L 110.06 97.49 L 110.39 96.22 L 110.53 93.92 L 110.45 92.41 L 110.10 90.91 L 109.45 89.50 L 108.51 88.29 L 107.30 87.36 L 105.89 86.78 L 104.37 86.56 L 102.83 86.71 L 101.35 87.16 L 100.00 87.84 L 98.81 88.65 L 97.77 89.50 L 96.85 90.30 L 95.99 91.00 L 95.14 91.57 L 94.21 92.03 L 93.18 92.42 L 92.02 92.82 L 90.77 93.29 L 89.47 93.92 L 88.20 94.75 L 87.07 95.80 L 86.18 97.06 L 85.60 98.49 L 85.41 100.00 L 85.60 101.51 L 86.18 102.94 L 87.07 104.20 L 88.20 105.25 L 89.47 106.08 L 90.77 106.71 L 92.02 107.18 L 93.18 107.58 L 94.21 107.97 L 95.14 108.43 L 95.99 109.00 L 96.85 109.70 L 97.77 110.50 L 98.81 111.35 L 100.00 112.16 L 101.35 112.84 L 102.83 113.29 L 104.37 113.44 L 105.89 113.22 L 107.30 112.64 L 108.51 111.71 L 109.45 110.50 L 110.10 109.09 L 110.45 107.59 L 110.53 106.08 L 110.42 104.64 L 110.21 103.32 L 109.97 102.12 L 109.79 101.03 L 109.73 100.00 L 109.79 98.97 L 109.97 97.88 L 110.21 96.68 L 110.42 95.36 L 110.53 93.92 L 110.25 91.40 L 109.87 89.78 L 109.20 88.22 L 108.24 86.82 L 106.98 85.69 L 105.49 84.91 L 103.85 84.55 L 102.16 84.61 L 100.52 85.06 L 99.01 85.83 L 97.68 86.83 L 96.54 87.94 L 95.58 89.05 L 94.74 90.10 L 93.94 91.02 L 93.12 91.80 L 92.21 92.47 L 91.16 93.10 L 89.99 93.74 L 88.72 94.50 L 87.43 95.42 L 86.22 96.56 L 85.19 97.92 L 84.47 99.46 L 84.12 101.11 L 84.19 102.79 L 84.69 104.39 L 85.59 105.82 L 86.80 107.02 L 88.22 107.94 L 89.75 108.60 L 91.28 109.03 L 92.73 109.30 L 94.06 109.51 L 95.25 109.74 L 96.34 110.06 L 97.38 110.51 L 98.44 111.10 L 99.59 111.80 L 100.88 112.52 L 102.32 113.17 L 103.92 113.65 L 105.60 113.86 L 107.30 113.72 L 108.90 113.20 L 110.32 112.30 L 111.45 111.06 L 112.25 109.57 L 112.68 107.92 L 112.77 106.23 L 112.57 104.58 L 112.18 103.04 L 111.69 101.64 L 111.21 100.39 L 110.81 99.24 L 110.54 98.14 L 110.41 97.01 L 110.40 95.80 L 110.42 94.46 L 110.41 92.98 L 110.25 91.40 L 109.46 88.73 L 108.74 87.05 L 107.72 85.48 L 106.40 84.15 L 104.83 83.16 L 103.07 82.61 L 101.22 82.53 L 99.40 82.91 L 97.71 83.71 L 96.22 84.84 L 94.97 86.17 L 93.95 87.59 L 93.12 88.99 L 92.41 90.28 L 91.72 91.43 L 90.98 92.43 L 90.12 93.34 L 89.11 94.21 L 87.96 95.14 L 86.73 96.19 L 85.51 97.44 L 84.41 98.91 L 83.56 100.57 L 83.07 102.38 L 83.01 104.24 L 83.41 106.04 L 84.26 107.68 L 85.50 109.06 L 87.04 110.12 L 88.76 110.85 L 90.54 111.27 L 92.28 111.45 L 93.90 111.47 L 95.38 111.44 L 96.72 111.45 L 97.96 111.59 L 99.17 111.89 L 100.43 112.33 L 101.81 112.86 L 103.34 113.40 L 105.03 113.83 L 106.85 114.04 L 108.71 113.95 L 110.53 113.47 L 112.17 112.60 L 113.53 111.35 L 114.52 109.79 L 115.10 108.03 L 115.25 106.16 L 115.02 104.31 L 114.49 102.56 L 113.77 100.96 L 112.98 99.55 L 112.21 98.28 L 111.56 97.12 L 111.06 95.97 L 110.71 94.78 L 110.46 93.46 L 110.23 92.01 L 109.93 90.41 L 109.46 88.73 L 108.09 85.98 L 106.99 84.30 L 105.59 82.80 L 103.91 81.60 L 102.01 80.84 L 100.00 80.58 L 97.99 80.84 L 96.09 81.60 L 94.41 82.80 L 93.01 84.30 L 91.91 85.98 L 91.07 87.71 L 90.44 89.38 L 89.92 90.92 L 89.40 92.30 L 88.79 93.53 L 88.02 94.67 L 87.10 95.81 L 86.03 97.03 L 84.90 98.41 L 83.81 100.00 L 82.91 101.80 L 82.31 103.76 L 82.11 105.81 L 82.40 107.84 L 83.18 109.71 L 84.41 111.32 L 86.02 112.58 L 87.90 113.44 L 89.90 113.91 L 91.91 114.02 L 93.82 113.87 L 95.59 113.59 L 97.18 113.27 L 98.63 113.04 L 100.00 112.95 L 101.37 113.04 L 102.82 113.27 L 104.41 113.59 L 106.18 113.87 L 108.09 114.02 L 110.10 113.91 L 112.10 113.44 L 113.98 112.58 L 115.59 111.32 L 116.82 109.71 L 117.60 107.84 L 117.89 105.81 L 117.69 103.76 L 117.09 101.80 L 116.19 100.00 L 115.10 98.41 L 113.97 97.03 L 112.90 95.81 L 111.98 94.67 L 111.21 93.53 L 110.60 92.30 L 110.08 90.92 L 109.56 89.38 L 108.93 87.71 L 108.09 85.98 L 106.09 83.27 L 104.57 81.66 L 102.77 80.29 L 100.72 79.33 L 98.52 78.86 L 96.29 78.96 L 94.16 79.63 L 92.25 80.82 L 90.66 82.43 L 89.43 84.33 L 88.55 86.36 L 87.98 88.40 L 87.62 90.33 L 87.34 92.09 L 87.04 93.68 L 86.61 95.13 L 86.01 96.51 L 85.22 97.92 L 84.30 99.45 L 83.34 101.17 L 82.46 103.09 L 81.83 105.21 L 81.55 107.45 L 81.73 109.71 L 82.43 111.85 L 83.63 113.73 L 85.28 115.24 L 87.26 116.30 L 89.46 116.88 L 91.71 116.99 L 93.91 116.73 L 95.96 116.21 L 97.81 115.56 L 99.48 114.92 L 101.01 114.38 L 102.47 114.03 L 103.97 113.86 L 105.59 113.84 L 107.38 113.87 L 109.34 113.85 L 111.45 113.64 L 113.60 113.13 L 115.68 112.25 L 117.54 110.96 L 119.05 109.29 L 120.08 107.31 L 120.56 105.13 L 120.49 102.88 L 119.89 100.69 L 118.86 98.68 L 117.54 96.91 L 116.06 95.40 L 114.57 94.11 L 113.18 92.99 L 111.95 91.94 L 110.91 90.84 L 110.02 89.63 L 109.19 88.24 L 108.33 86.67 L 107.32 84.99 L 106.09 83.27 L 103.40 80.71 L 101.45 79.25 L 99.24 78.12 L 96.83 77.47 L 94.36 77.38 L 91.96 77.91 L 89.78 79.05 L 87.94 80.70 L 86.52 82.75 L 85.55 85.04 L 85.00 87.41 L 84.77 89.72 L 84.74 91.89 L 84.78 93.85 L 84.75 95.63 L 84.57 97.28 L 84.18 98.89 L 83.59 100.57 L 82.88 102.41 L 82.17 104.45 L 81.59 106.70 L 81.31 109.12 L 81.44 111.60 L 82.07 114.01 L 83.23 116.19 L 84.89 118.01 L 86.96 119.33 L 89.32 120.09 L 91.80 120.30 L 94.27 119.99 L 96.60 119.29 L 98.72 118.33 L 100.60 117.27 L 102.28 116.26 L 103.84 115.39 L 105.36 114.72 L 106.95 114.26 L 108.70 113.92 L 110.64 113.62 L 112.77 113.22 L 115.00 112.59 L 117.24 111.63 L 119.33 110.28 L 121.10 108.52 L 122.41 106.43 L 123.15 104.08 L 123.26 101.63 L 122.74 99.21 L 121.68 96.95 L 120.18 94.97 L 118.41 93.30 L 116.52 91.94 L 114.66 90.84 L 112.94 89.89 L 111.41 88.98 L 110.07 88.00 L 108.87 86.85 L 107.71 85.50 L 106.47 83.97 L 105.07 82.34 L 103.40 80.71 L 100.00 78.45 L 97.61 77.25 L 94.99 76.45 L 92.26 76.19 L 89.57 76.57 L 87.07 77.61 L 84.93 79.25 L 83.25 81.40 L 82.11 83.89 L 81.49 86.55 L 81.34 89.23 L 81.53 91.78 L 81.92 94.12 L 82.34 96.25 L 82.65 98.18 L 82.76 100.00 L 82.65 101.82 L 82.34 103.75 L 81.92 105.88 L 81.53 108.22 L 81.34 110.77 L 81.49 113.45 L 82.11 116.11 L 83.25 118.60 L 84.93 120.75 L 87.07 122.39 L 89.57 123.43 L 92.26 123.81 L 94.99 123.55 L 97.61 122.75 L 100.00 121.55 L 102.11 120.10 L 103.95 118.60 L 105.58 117.18 L 107.10 115.94 L 108.62 114.93 L 110.26 114.12 L 112.08 113.42 L 114.13 112.72 L 116.35 111.88 L 118.66 110.77 L 120.90 109.30 L 122.90 107.44 L 124.48 105.20 L 125.50 102.68 L 125.85 100.00 L 125.50 97.32 L 124.48 94.80 L 122.90 92.56 L 120.90 90.70 L 118.66 89.23 L 116.35 88.12 L 114.13 87.28 L 112.08 86.58 L 110.26 85.88 L 108.62 85.07 L 107.10 84.06 L 105.58 82.82 L 103.95 81.40 L 102.11 79.90 L 100.00 78.45 L 95.88 76.66 L 93.06 75.81 L 90.08 75.44 L 87.07 75.69 L 84.23 76.61 L 81.72 78.21 L 79.71 80.41 L 78.30 83.05 L 77.54 85.96 L 77.38 88.97 L 77.73 91.89 L 78.43 94.62 L 79.29 97.09 L 80.15 99.31 L 80.85 101.34 L 81.33 103.29 L 81.55 105.29 L 81.58 107.44 L 81.53 109.82 L 81.57 112.43 L 81.84 115.23 L 82.52 118.10 L 83.69 120.87 L 85.41 123.35 L 87.63 125.35 L 90.27 126.72 L 93.18 127.37 L 96.17 127.27 L 99.08 126.47 L 101.76 125.10 L 104.12 123.34 L 106.13 121.37 L 107.83 119.39 L 109.33 117.54 L 110.73 115.91 L 112.19 114.52 L 113.81 113.33 L 115.65 112.23 L 117.74 111.08 L 119.98 109.75 L 122.27 108.11 L 124.42 106.09 L 126.23 103.69 L 127.52 100.96 L 128.14 98.03 L 128.01 95.06 L 127.12 92.22 L 125.53 89.69 L 123.39 87.57 L 120.86 85.93 L 118.16 84.77 L 115.45 84.01 L 112.88 83.52 L 110.53 83.15 L 108.41 82.75 L 106.48 82.18 L 104.64 81.38 L 102.76 80.33 L 100.73 79.10 L 98.45 77.82 L 95.88 76.66 L 91.08 75.50 L 87.87 75.12 L 84.56 75.29 L 81.35 76.13 L 78.45 77.68 L 76.04 79.89 L 74.28 82.65 L 73.26 85.78 L 72.99 89.09 L 73.39 92.37 L 74.33 95.47 L 75.60 98.29 L 77.01 100.80 L 78.36 103.04 L 79.52 105.11 L 80.40 107.13 L 81.03 109.25 L 81.47 111.58 L 81.87 114.16 L 82.41 116.99 L 83.24 119.97 L 84.52 122.95 L 86.32 125.72 L 88.65 128.08 L 91.45 129.83 L 94.57 130.81 L 97.84 130.95 L 101.06 130.27 L 104.05 128.85 L 106.70 126.86 L 108.92 124.50 L 110.72 121.98 L 112.19 119.51 L 113.45 117.22 L 114.66 115.19 L 115.98 113.41 L 117.50 111.81 L 119.29 110.26 L 121.33 108.62 L 123.51 106.74 L 125.67 104.53 L 127.61 101.93 L 129.12 98.98 L 129.99 95.78 L 130.11 92.49 L 129.40 89.30 L 127.89 86.40 L 125.69 83.95 L 122.96 82.06 L 119.91 80.77 L 116.76 80.03 L 113.68 79.72 L 110.80 79.69 L 108.19 79.74 L 105.82 79.71 L 103.62 79.46 L 101.47 78.94 L 99.24 78.16 L 96.80 77.22 L 94.08 76.27 L 91.08 75.50 L 85.66 75.17 L 82.10 75.37 L 78.56 76.18 L 75.24 77.71 L 72.39 79.94 L 70.20 82.79 L 68.82 86.12 L 68.31 89.70 L 68.65 93.34 L 69.72 96.82 L 71.32 100.00 L 73.24 102.81 L 75.25 105.26 L 77.14 107.43 L 78.79 109.45 L 80.13 111.47 L 81.21 113.65 L 82.14 116.08 L 83.07 118.81 L 84.19 121.77 L 85.66 124.83 L 87.62 127.82 L 90.10 130.48 L 93.07 132.59 L 96.43 133.94 L 100.00 134.41 L 103.57 133.94 L 106.93 132.59 L 109.90 130.48 L 112.38 127.82 L 114.34 124.83 L 115.81 121.77 L 116.93 118.81 L 117.86 116.08 L 118.79 113.65 L 119.87 111.47 L 121.21 109.45 L 122.86 107.43 L 124.75 105.26 L 126.76 102.81 L 128.68 100.00 L 130.28 96.82 L 131.35 93.34 L 131.69 89.70 L 131.18 86.12 L 129.80 82.79 L 127.61 79.94 L 124.76 77.71 L 121.44 76.18 L 117.90 75.37 L 114.34 75.17 L 110.94 75.42 L 107.82 75.93 L 105.00 76.49 L 102.43 76.91 L 100.00 77.06 L 97.57 76.91 L 95.00 76.49 L 92.18 75.93 L 89.06 75.42 L 85.66 75.17 L 79.72 75.84 L 75.91 76.73 L 72.22 78.30 L 68.92 80.58 L 66.26 83.54 L 64.43 87.05 L 63.57 90.92 L 63.71 94.90 L 64.77 98.77 L 66.59 102.34 L 68.93 105.48 L 71.55 108.16 L 74.19 110.43 L 76.65 112.41 L 78.82 114.28 L 80.67 116.22 L 82.26 118.38 L 83.72 120.84 L 85.25 123.61 L 87.03 126.60 L 89.21 129.64 L 91.90 132.50 L 95.09 134.91 L 98.72 136.63 L 102.62 137.45 L 106.57 137.28 L 110.35 136.09 L 113.73 133.98 L 116.55 131.13 L 118.73 127.77 L 120.28 124.16 L 121.29 120.56 L 121.94 117.14 L 122.42 114.01 L 122.96 111.20 L 123.71 108.63 L 124.79 106.18 L 126.18 103.68 L 127.82 100.97 L 129.52 97.94 L 131.07 94.52 L 132.20 90.77 L 132.69 86.79 L 132.36 82.79 L 131.13 79.01 L 129.00 75.67 L 126.08 72.99 L 122.56 71.12 L 118.68 70.10 L 114.68 69.90 L 110.79 70.36 L 107.16 71.28 L 103.87 72.43 L 100.92 73.58 L 98.22 74.52 L 95.62 75.15 L 92.96 75.45 L 90.10 75.48 L 86.93 75.42 L 83.45 75.46 L 79.72 75.84 L 73.42 77.70 L 69.46 79.40 L 65.76 81.79 L 62.62 84.90 L 60.30 88.62 L 58.99 92.77 L 58.80 97.12 L 59.71 101.41 L 61.60 105.40 L 64.25 108.91 L 67.39 111.87 L 70.74 114.27 L 74.03 116.23 L 77.08 117.91 L 79.79 119.52 L 82.16 121.26 L 84.29 123.29 L 86.35 125.68 L 88.53 128.39 L 91.03 131.29 L 93.97 134.17 L 97.43 136.75 L 101.35 138.75 L 105.61 139.92 L 109.99 140.07 L 114.24 139.13 L 118.10 137.12 L 121.36 134.19 L 123.87 130.56 L 125.59 126.50 L 126.58 122.30 L 126.99 118.20 L 127.04 114.38 L 126.97 110.90 L 127.01 107.75 L 127.34 104.82 L 128.03 101.96 L 129.07 98.98 L 130.32 95.74 L 131.59 92.12 L 132.61 88.13 L 133.11 83.85 L 132.89 79.45 L 131.77 75.18 L 129.71 71.31 L 126.76 68.10 L 123.09 65.76 L 118.93 64.41 L 114.53 64.05 L 110.16 64.58 L 106.03 65.83 L 102.27 67.52 L 98.93 69.40 L 95.95 71.20 L 93.20 72.74 L 90.51 73.91 L 87.68 74.74 L 84.59 75.33 L 81.15 75.87 L 77.39 76.58 L 73.42 77.70 L 66.94 80.92 L 62.98 83.52 L 59.43 86.82 L 56.62 90.78 L 54.82 95.25 L 54.20 100.00 L 54.82 104.75 L 56.62 109.22 L 59.43 113.18 L 62.98 116.48 L 66.94 119.08 L 71.03 121.05 L 74.97 122.54 L 78.59 123.78 L 81.83 125.01 L 84.73 126.44 L 87.43 128.24 L 90.11 130.43 L 93.00 132.95 L 96.26 135.61 L 100.00 138.17 L 104.24 140.31 L 108.87 141.72 L 113.70 142.17 L 118.48 141.50 L 122.90 139.67 L 126.70 136.75 L 129.67 132.95 L 131.70 128.54 L 132.79 123.82 L 133.06 119.08 L 132.71 114.57 L 132.03 110.41 L 131.29 106.65 L 130.74 103.23 L 130.54 100.00 L 130.74 96.77 L 131.29 93.35 L 132.03 89.59 L 132.71 85.43 L 133.06 80.92 L 132.79 76.18 L 131.70 71.46 L 129.67 67.05 L 126.70 63.25 L 122.90 60.33 L 118.48 58.50 L 113.70 57.83 L 108.87 58.28 L 104.24 59.69 L 100.00 61.83 L 96.26 64.39 L 93.00 67.05 L 90.11 69.57 L 87.43 71.76 L 84.73 73.56 L 81.83 74.99 L 78.59 76.22 L 74.97 77.46 L 71.03 78.95 L 66.94 80.92 L 60.55 85.64 L 56.74 89.21 L 53.54 93.47 L 51.25 98.30 L 50.15 103.49 L 50.38 108.75 L 51.96 113.77 L 54.77 118.27 L 58.57 122.03 L 63.04 124.93 L 67.84 126.99 L 72.64 128.34 L 77.19 129.20 L 81.35 129.84 L 85.10 130.56 L 88.51 131.56 L 91.77 132.99 L 95.10 134.85 L 98.71 137.03 L 102.75 139.29 L 107.29 141.35 L 112.29 142.85 L 117.58 143.50 L 122.90 143.07 L 127.94 141.43 L 132.39 138.60 L 135.95 134.71 L 138.44 130.03 L 139.79 124.86 L 140.07 119.54 L 139.45 114.36 L 138.22 109.53 L 136.69 105.16 L 135.17 101.23 L 133.92 97.63 L 133.08 94.17 L 132.68 90.63 L 132.63 86.82 L 132.71 82.61 L 132.66 77.97 L 132.16 73.01 L 130.97 67.93 L 128.89 63.03 L 125.85 58.63 L 121.91 55.09 L 117.23 52.66 L 112.09 51.51 L 106.79 51.70 L 101.64 53.11 L 96.89 55.53 L 92.71 58.65 L 89.14 62.14 L 86.12 65.65 L 83.48 68.93 L 80.99 71.81 L 78.41 74.27 L 75.54 76.38 L 72.27 78.33 L 68.58 80.37 L 64.60 82.73 L 60.55 85.64 L 54.52 91.98 L 51.08 96.58 L 48.42 101.80 L 46.87 107.47 L 46.66 113.30 L 47.92 118.96 L 50.59 124.10 L 54.50 128.43 L 59.33 131.78 L 64.72 134.07 L 70.31 135.38 L 75.77 135.92 L 80.87 135.98 L 85.50 135.89 L 89.69 135.95 L 93.58 136.39 L 97.39 137.31 L 101.35 138.69 L 105.67 140.36 L 110.48 142.04 L 115.80 143.40 L 121.50 144.08 L 127.35 143.77 L 133.03 142.28 L 138.18 139.54 L 142.46 135.62 L 145.57 130.74 L 147.38 125.19 L 147.86 119.33 L 147.14 113.52 L 145.48 108.02 L 143.22 103.02 L 140.73 98.58 L 138.33 94.61 L 136.29 90.95 L 134.72 87.36 L 133.61 83.61 L 132.83 79.49 L 132.12 74.91 L 131.17 69.90 L 129.69 64.62 L 127.42 59.35 L 124.23 54.43 L 120.10 50.25 L 115.15 47.16 L 109.62 45.42 L 103.83 45.16 L 98.13 46.38 L 92.82 48.89 L 88.14 52.42 L 84.20 56.60 L 81.01 61.06 L 78.40 65.44 L 76.17 69.49 L 74.02 73.10 L 71.70 76.25 L 68.99 79.09 L 65.82 81.83 L 62.21 84.73 L 58.35 88.06 L 54.52 91.98 L 49.20 100.00 L 46.35 105.64 L 44.47 111.80 L 43.87 118.24 L 44.76 124.59 L 47.20 130.48 L 51.08 135.54 L 56.14 139.49 L 62.01 142.19 L 68.29 143.64 L 74.60 144.00 L 80.61 143.54 L 86.15 142.64 L 91.15 141.65 L 95.70 140.91 L 100.00 140.64 L 104.30 140.91 L 108.85 141.65 L 113.85 142.64 L 119.39 143.54 L 125.40 144.00 L 131.71 143.64 L 137.99 142.19 L 143.86 139.49 L 148.92 135.54 L 152.80 130.48 L 155.24 124.59 L 156.13 118.24 L 155.53 111.80 L 153.65 105.64 L 150.80 100.00 L 147.40 95.02 L 143.85 90.68 L 140.50 86.84 L 137.58 83.27 L 135.20 79.68 L 133.28 75.82 L 131.65 71.51 L 130.00 66.68 L 128.02 61.44 L 125.40 56.00 L 121.94 50.72 L 117.54 46.00 L 112.27 42.27 L 106.32 39.87 L 100.00 39.04 L 93.68 39.87 L 87.73 42.27 L 82.46 46.00 L 78.06 50.72 L 74.60 56.00 L 71.98 61.44 L 70.00 66.68 L 68.35 71.51 L 66.72 75.82 L 64.80 79.68 L 62.42 83.27 L 59.50 86.84 L 56.15 90.68 L 52.60 95.02 L 49.20 100.00 L 44.97 109.70 L 42.96 116.36 L 42.10 123.40 L 42.67 130.48 L 44.86 137.19 L 48.63 143.11 L 53.80 147.85 L 60.03 151.16 L 66.91 152.96 L 73.99 153.33 L 80.89 152.51 L 87.32 150.87 L 93.14 148.83 L 98.37 146.81 L 103.16 145.14 L 107.76 144.03 L 112.47 143.50 L 117.55 143.43 L 123.15 143.54 L 129.32 143.47 L 135.92 142.81 L 142.68 141.22 L 149.21 138.45 L 155.06 134.40 L 159.78 129.16 L 163.02 122.94 L 164.54 116.09 L 164.29 109.04 L 162.41 102.18 L 159.19 95.86 L 155.03 90.30 L 150.40 85.55 L 145.72 81.53 L 141.36 78.01 L 137.52 74.69 L 134.25 71.26 L 131.44 67.45 L 128.84 63.09 L 126.13 58.18 L 122.98 52.88 L 119.11 47.49 L 114.35 42.43 L 108.69 38.16 L 102.27 35.11 L 95.36 33.65 L 88.36 33.96 L 81.67 36.06 L 75.68 39.80 L 70.68 44.86 L 66.82 50.81 L 64.08 57.19 L 62.29 63.58 L 61.14 69.64 L 60.28 75.18 L 59.33 80.16 L 57.99 84.71 L 56.09 89.05 L 53.61 93.48 L 50.72 98.28 L 47.70 103.66 L 44.97 109.70 L 42.24 121.02 L 41.34 128.61 L 41.74 136.40 L 43.72 143.97 L 47.37 150.82 L 52.58 156.51 L 59.09 160.66 L 66.47 163.06 L 74.27 163.70 L 82.01 162.74 L 89.33 160.54 L 95.98 157.53 L 101.89 154.21 L 107.17 151.02 L 112.04 148.30 L 116.82 146.21 L 121.82 144.74 L 127.30 143.70 L 133.40 142.75 L 140.06 141.49 L 147.09 139.51 L 154.11 136.50 L 160.66 132.25 L 166.22 126.75 L 170.33 120.17 L 172.64 112.81 L 172.99 105.10 L 171.37 97.51 L 168.03 90.44 L 163.33 84.21 L 157.76 78.98 L 151.84 74.72 L 146.00 71.25 L 140.60 68.28 L 135.81 65.42 L 131.61 62.33 L 127.84 58.73 L 124.19 54.51 L 120.32 49.71 L 115.90 44.56 L 110.67 39.46 L 104.55 34.89 L 97.60 31.34 L 90.06 29.28 L 82.30 29.01 L 74.77 30.68 L 67.93 34.24 L 62.15 39.43 L 57.71 45.87 L 54.66 53.05 L 52.91 60.49 L 52.19 67.75 L 52.10 74.53 L 52.23 80.70 L 52.15 86.28 L 51.57 91.46 L 50.34 96.53 L 48.51 101.80 L 46.28 107.55 L 44.04 113.95 L 42.24 121.02 L 41.44 133.81 L 41.91 142.20 L 43.84 150.56 L 47.43 158.38 L 52.69 165.11 L 59.43 170.27 L 67.27 173.52 L 75.72 174.71 L 84.29 173.92 L 92.50 171.40 L 100.00 167.62 L 106.63 163.09 L 112.41 158.37 L 117.51 153.90 L 122.27 150.02 L 127.05 146.85 L 132.19 144.30 L 137.92 142.12 L 144.34 139.93 L 151.32 137.29 L 158.56 133.81 L 165.59 129.20 L 171.87 123.35 L 176.84 116.33 L 180.04 108.41 L 181.14 100.00 L 180.04 91.59 L 176.84 83.67 L 171.87 76.65 L 165.59 70.80 L 158.56 66.19 L 151.32 62.71 L 144.34 60.07 L 137.92 57.88 L 132.19 55.70 L 127.05 53.15 L 122.27 49.98 L 117.51 46.10 L 112.41 41.63 L 106.63 36.91 L 100.00 32.38 L 92.50 28.60 L 84.29 26.08 L 75.72 25.29 L 67.27 26.48 L 59.43 29.73 L 52.69 34.89 L 47.43 41.62 L 43.84 49.44 L 41.91 57.80 L 41.44 66.19 L 42.05 74.20 L 43.25 81.56 L 44.56 88.22 L 45.54 94.28 L 45.91 100.00 L 45.54 105.72 L 44.56 111.78 L 43.25 118.44 L 42.05 125.80 L 41.44 133.81 L 43.02 147.81 L 45.14 156.81 L 48.82 165.50 L 54.21 173.28 L 61.19 179.57 L 69.47 183.87 L 78.58 185.90 L 87.97 185.57 L 97.10 183.07 L 105.51 178.78 L 112.92 173.25 L 119.23 167.08 L 124.59 160.86 L 129.27 155.05 L 133.68 149.93 L 138.25 145.58 L 143.33 141.84 L 149.13 138.38 L 155.66 134.78 L 162.72 130.59 L 169.89 125.44 L 176.63 119.11 L 182.32 111.57 L 186.36 103.02 L 188.31 93.82 L 187.90 84.50 L 185.10 75.60 L 180.12 67.63 L 173.39 60.98 L 165.47 55.84 L 156.98 52.19 L 148.48 49.80 L 140.41 48.28 L 133.04 47.13 L 126.40 45.86 L 120.35 44.08 L 114.57 41.56 L 108.68 38.26 L 102.29 34.40 L 95.13 30.39 L 87.08 26.75 L 78.23 24.08 L 68.86 22.93 L 59.43 23.70 L 50.50 26.61 L 42.63 31.63 L 36.32 38.50 L 31.90 46.80 L 29.51 55.95 L 29.02 65.38 L 30.11 74.56 L 32.29 83.12 L 35.00 90.87 L 37.69 97.82 L 39.91 104.20 L 41.40 110.33 L 42.10 116.60 L 42.19 123.35 L 42.05 130.81 L 42.15 139.02 L 43.02 147.81 L 47.41 162.68 L 51.42 172.02 L 57.75 179.47 L 66.29 183.45 L 75.19 186.51 L 84.37 188.63 L 93.72 189.78 L 103.14 189.95 L 112.53 189.12 L 121.02 184.29 L 127.98 176.88 L 133.65 168.99 L 138.26 161.23 L 142.22 154.04 L 146.02 147.66 L 150.14 142.07 L 154.93 137.05 L 160.55 132.20 L 166.94 127.05 L 173.79 121.16 L 180.58 114.21 L 186.66 106.06 L 189.95 96.86 L 189.12 87.47 L 187.33 78.23 L 184.57 69.22 L 180.89 60.55 L 176.32 52.31 L 170.92 44.59 L 162.49 39.65 L 152.59 37.32 L 142.92 36.36 L 133.90 36.25 L 125.69 36.41 L 118.26 36.31 L 111.37 35.54 L 104.62 33.91 L 97.61 31.46 L 89.95 28.50 L 81.43 25.52 L 72.02 23.12 L 61.92 21.92 L 52.31 23.68 L 44.59 29.08 L 37.48 35.26 L 31.06 42.15 L 25.39 49.67 L 20.53 57.75 L 16.55 66.29 L 16.49 76.05 L 19.42 85.79 L 23.43 94.65 L 27.84 102.52 L 32.09 109.54 L 35.71 116.03 L 38.49 122.39 L 40.45 129.04 L 41.84 136.34 L 43.11 144.45 L 44.78 153.32 L 47.41 162.68 L 55.00 177.94 L 63.39 182.22 L 72.19 185.60 L 81.29 188.03 L 90.59 189.51 L 100.00 190.00 L 109.41 189.51 L 118.71 188.03 L 127.81 185.60 L 136.61 182.22 L 145.00 177.94 L 149.63 168.31 L 153.14 159.02 L 156.06 150.48 L 158.96 142.84 L 162.35 136.00 L 166.58 129.64 L 171.75 123.31 L 177.68 116.51 L 183.98 108.83 L 190.00 100.00 L 189.51 90.59 L 188.03 81.29 L 185.60 72.19 L 182.22 63.39 L 177.94 55.00 L 172.81 47.10 L 166.88 39.78 L 160.22 33.12 L 152.90 27.19 L 145.00 22.06 L 134.34 22.86 L 124.54 24.47 L 115.68 26.21 L 107.62 27.52 L 100.00 28.00 L 92.38 27.52 L 84.32 26.21 L 75.46 24.47 L 65.66 22.86 L 55.00 22.06 L 47.10 27.19 L 39.78 33.12 L 33.12 39.78 L 27.19 47.10 L 22.06 55.00 L 17.78 63.39 L 14.40 72.19 L 11.97 81.29 L 10.49 90.59 L 10.00 100.00 L 16.02 108.83 L 22.32 116.51 L 28.25 123.31 L 33.42 129.64 L 37.65 136.00 L 41.04 142.84 L 43.94 150.48 L 46.86 159.02 L 50.37 168.31 L 55.00 177.94 L 73.12 182.74 L 91.22 183.54 L 108.47 180.56 L 124.10 174.18 L 137.50 164.95 L 148.18 153.51 L 155.82 140.56 L 160.29 126.84 L 161.62 113.10 L 160.00 100.00 L 155.75 88.15 L 149.33 78.04 L 141.26 70.02 L 132.12 64.33 L 122.50 61.03 L 112.98 60.06 L 104.08 61.21 L 96.24 64.20 L 89.80 68.62 L 85.00 74.02 L 81.93 79.94 L 80.58 85.89 L 80.82 91.46 L 82.39 96.26 L 85.00 100.00 L 88.26 102.49 L 91.78 103.66 L 95.15 103.53 L 97.99 102.23 L 100.00 100.00" fill="none" stroke="#3b82f6" stroke-width="1" stroke-linecap="round" stroke-linejoin="round"/>
</svg>